<?xml version="1.0" encoding="utf-8"?>
<!-- Generator: Adobe Illustrator 26.5.0, SVG Export Plug-In . SVG Version: 6.00 Build 0)  -->
<svg version="1.1" id="图层_1" xmlns="http://www.w3.org/2000/svg" xmlns:xlink="http://www.w3.org/1999/xlink" x="0px" y="0px"
	 viewBox="0 0 1044 1024" style="enable-background:new 0 0 1044 1024;" xml:space="preserve">
<style type="text/css">
	.st0{fill:#FFFFFF;}
</style>
<g transform="matrix(1 0 0 -1 0 896)">
	<path class="st0" d="M95,564V20h854v544h85V-64H10v628H95z M223,145V62h-85v83H223z M351,145V62h-85v83H351z M488,145V62h-85v83
		H488z M616,145V62h-85v83H616z M752,145V62h-85v83H752z M880,145V62h-85v83H880z M223,271v-84h-85v84H223z M351,271v-84h-85v84H351
		z M488,271v-84h-85v84H488z M616,271v-84h-85v84H616z M752,271v-84h-85v84H752z M880,271v-84h-85v84H880z M309,648V492h106L266,313
		L117,492h106v156H309z M813,648V492h107L771,313L621,492h107v156H813z M181,706v-83H95v83H181z M437,706v-83h-86v83H437z M693,706
		v-83h-86v83H693z M949,706v-83h-86v83H949z M309,748v-83h-86v83H309z M565,748v-83h-86v83H565z M812,748v-83h-85v83H812z M181,832
		v-84H95v84H181z M437,832v-84h-86v84H437z M693,832v-84h-86v84H693z M949,832v-84h-86v84H949z"/>
</g>
</svg>
