<?xml version="1.0" encoding="utf-8"?>
<!-- Generator: Adobe Illustrator 26.5.0, SVG Export Plug-In . SVG Version: 6.00 Build 0)  -->
<svg version="1.1" id="图层_1" xmlns="http://www.w3.org/2000/svg" xmlns:xlink="http://www.w3.org/1999/xlink" x="0px" y="0px"
	 viewBox="0 0 24 24" style="enable-background:new 0 0 24 24;" xml:space="preserve">
<style type="text/css">
	.st0{stroke:#000000;stroke-width:0.5;stroke-miterlimit:10;}
	.st1{font-family:'MicrosoftYaHei-Bold';}
	.st2{font-size:14px;}
</style>
<text transform="matrix(1 0 0 1 1.4505 17.1904)" class="st0 st1 st2">DK</text>
<path d="M23,2C16.4,2,9.9,2,3.3,2C2.5,1.7,1.8,1.3,1,1h22V2z"/>
<path d="M22,5.6c0.3,0.3,0.7,0.6,1,0.9v-5h-1C22,2.9,22,4.2,22,5.6z"/>
<path d="M1,22c6.6,0,13.1,0,19.7,0c0.8,0.3,1.5,0.7,2.3,1H1V22z"/>
<path d="M2,18.4c-0.3-0.3-0.7-0.6-1-0.9v5h1C2,21.1,2,19.8,2,18.4z"/>
</svg>
