<?xml version="1.0" encoding="utf-8"?>
<!-- Generator: Adobe Illustrator 26.5.0, SVG Export Plug-In . SVG Version: 6.00 Build 0)  -->
<svg version="1.1" id="图层_1" xmlns="http://www.w3.org/2000/svg" xmlns:xlink="http://www.w3.org/1999/xlink" x="0px" y="0px"
	 viewBox="0 0 1044 1024" style="enable-background:new 0 0 1044 1024;" xml:space="preserve">
<style type="text/css">
	.st0{fill:#FFFFFF;}
</style>
<g transform="matrix(1 0 0 -1 0 896)">
	<path class="st0" d="M611,859l66-229h-30l-16,58h-72l-14-54l33-159l62,48l4-105h70v158h128V224h192L778-96L526,219h-8L266-96
		L10,224h192v352h128V388l66,21l-22,166l99-79l55,134h-14l65,229H611z M531,449l-33-55l-48,17l9-61l-46-17l29-30l-20-28h-91l39,45
		l-40,41V242h384v130l-49-61l41-36h-88l-25,23l44,57l-54-3l-3,59l-34-24L531,449z M420,863c26.7,0,47.3-11,62-33s22-50.5,22-85.5
		s-7.3-63.5-22-85.5s-35.2-33-61.5-33s-46.8,11-61.5,33s-22,50.5-22,85.5s7.3,63.5,22,85.5S394,863,420,863z M230,859V662h93v-32
		H202v229H230z M756,859h7c24.7-2,43.7-12.5,57-31.5s20-46.7,20-83s-7-64.5-21-84.5s-35-30-63-30h-62v229H756z M420,830
		c-17.3,0-30.8-7.7-40.5-23S365,770.8,365,744.5s4.8-47.2,14.5-62.5s23.3-23,41-23s31.3,7.5,41,22.5S476,717.3,476,744
		s-4.8,47.7-14.5,63S438,830,420,830z M751,827h-29V662h29c21.3,0,36.8,6.7,46.5,20s14.5,34.3,14.5,63s-4.8,49.5-14.5,62.5
		S772.3,827,751,827z M596,818h-1l-27-100h55L596,818z"/>
</g>
</svg>
